<?xml version="1.0" encoding="iso-8859-1"?>
<!-- Uploaded to: SVG Repo, www.svgrepo.com, Generator: SVG Repo Mixer Tools -->
<svg height="800px" width="800px" version="1.1" id="Layer_1" xmlns="http://www.w3.org/2000/svg" xmlns:xlink="http://www.w3.org/1999/xlink" 
	 viewBox="0 0 511.999 511.999" xml:space="preserve">
<path style="fill:#CCD8E5;" d="M503.665,66.8v316.343c0,17.909-14.509,32.429-32.417,32.429H40.754
	c-17.909,0-32.418-14.52-32.418-32.429V66.8c0-17.909,14.509-32.429,32.418-32.429h430.493
	C489.155,34.371,503.665,48.891,503.665,66.8z"/>
<path style="fill:#DFEAF4;" d="M503.665,66.8v316.343c0,17.909-14.509,32.429-32.417,32.429H183.344l23.752-57.925L339.655,34.371
	h131.592C489.155,34.371,503.665,48.891,503.665,66.8z"/>
<path style="fill:#B8E9F2;" d="M503.665,66.8v290.847H8.337V66.8c0-17.909,14.509-32.429,32.418-32.429h430.493
	C489.155,34.371,503.665,48.891,503.665,66.8z"/>
<path style="fill:#D4F7FC;" d="M503.665,66.8v290.847H207.097L339.655,34.371h131.592C489.155,34.371,503.665,48.891,503.665,66.8z"
	/>
<polygon style="fill:#CCD8E5;" points="343.454,480.173 168.547,480.173 181.034,450.955 196.165,415.571 315.836,415.571 
	330.967,450.955 "/>
<polygon style="fill:#BAC6D1;" points="330.967,450.955 181.034,450.955 196.165,415.571 315.836,415.571 "/>
<path style="fill:#E8C262;" d="M300.82,224.588l-49.359,24.885l-31.307,15.775c-9.11,4.599-20.23,0.933-24.819-8.177l-25.918-51.426
	c-4.599-9.11-0.933-20.219,8.177-24.819l80.666-40.661l20.964,41.583L300.82,224.588z"/>
<g>
	<path style="fill:#609DC6;" d="M169.801,206.424l-13.294,6.701c-13.771,6.942-19.308,23.735-12.365,37.507l0,0
		c6.942,13.771,23.735,19.308,37.507,12.365l13.294-6.701L169.801,206.424z"/>
	<polygon style="fill:#609DC6;" points="373.087,229.243 300.82,224.588 279.223,181.75 258.259,140.167 297.497,79.298 
		310.585,105.261 	"/>
	<path style="fill:#609DC6;" d="M283.421,311.531c-8.477,4.277-18.797,2.022-24.719-5.399l-20.142-25.219l-14.198-17.775
		l27.096-13.665l9.532-4.81l29.085,36.417C298.031,291.045,294.808,305.798,283.421,311.531z"/>
</g>
<path d="M333.874,131.676c-2.072-4.108-7.083-5.761-11.191-3.689c-4.109,2.072-5.761,7.082-3.689,11.191l40.099,79.538
	l-52.979-3.413l-38.268-75.909l28.762-44.621l8.971,17.795c2.072,4.108,7.083,5.761,11.191,3.689
	c4.109-2.072,5.761-7.082,3.689-11.191l-15.526-30.796c-1.345-2.669-4.016-4.412-7.001-4.569c-2.975-0.159-5.824,1.295-7.442,3.806
	l-38.007,58.961l-78.641,39.644c-10.888,5.489-16.411,17.44-14.281,28.866l-6.805,3.431c-8.649,4.359-15.081,11.826-18.114,21.025
	c-3.033,9.199-2.301,19.026,2.06,27.674c4.359,8.648,11.826,15.081,21.024,18.113c3.733,1.231,7.569,1.841,11.388,1.841
	c5.591,0,11.147-1.31,16.285-3.899l6.803-3.43c3.042,3.281,6.87,5.767,11.237,7.207c2.761,0.91,5.597,1.362,8.422,1.362
	c3.458,0,6.896-0.688,10.152-2.03l30.177,37.787c5.518,6.91,13.826,10.654,22.275,10.654c4.318,0,8.675-0.979,12.711-3.014l0,0
	c7.677-3.871,13.131-10.907,14.967-19.307c1.835-8.4-0.191-17.07-5.556-23.789l-22.677-28.395l28.634-14.435l70.004,4.51
	c0.18,0.011,0.359,0.018,0.537,0.018c2.785,0,5.4-1.394,6.95-3.737c1.648-2.493,1.834-5.677,0.489-8.345L333.874,131.676z
	 M177.899,254.281c-4.675,2.356-9.984,2.751-14.954,1.112c-4.971-1.639-9.005-5.115-11.362-9.789s-2.752-9.984-1.113-14.954
	c1.639-4.97,5.115-9.005,9.789-11.362l5.854-2.951l17.641,34.993L177.899,254.281z M208.656,257.113
	c-2.574-0.849-4.663-2.649-5.884-5.069l-25.922-51.419c-2.52-4.997-0.503-11.111,4.493-13.63l73.225-36.915l12.414,24.624
	l22.646,44.92l-73.225,36.915C213.981,257.758,211.23,257.961,208.656,257.113z M285.863,294.837
	c-0.759,3.473-3.014,6.381-6.187,7.982l0,0c-4.935,2.487-11.016,1.159-14.465-3.158l-27.937-34.983l21.432-10.805l24.86,31.129
	C285.784,287.779,286.622,291.364,285.863,294.837z"/>
<path d="M358.974,141.055c1.465,2.906,4.4,4.583,7.447,4.583c1.261,0,2.542-0.288,3.744-0.894l33.954-17.118
	c4.109-2.072,5.761-7.082,3.689-11.191c-2.072-4.108-7.081-5.761-11.191-3.689l-33.954,17.118
	C358.555,131.935,356.904,136.945,358.974,141.055z"/>
<path d="M347.681,108.476c2.217,0,4.43-0.88,6.07-2.623l27.725-29.473c3.153-3.352,2.992-8.624-0.36-11.778
	c-3.352-3.153-8.625-2.992-11.778,0.36l-27.725,29.473c-3.153,3.352-2.992,8.624,0.36,11.778
	C343.582,107.726,345.633,108.476,347.681,108.476z"/>
<path d="M433.607,168.723c-0.541-4.57-4.69-7.834-9.255-7.294l-40.184,4.76c-4.569,0.541-7.836,4.685-7.293,9.254
	c0.502,4.237,4.099,7.352,8.263,7.352c0.328,0,0.659-0.019,0.992-0.059l40.184-4.76
	C430.883,177.436,434.148,173.293,433.607,168.723z"/>
<path d="M471.246,24.766H40.754C18.283,24.766,0,43.049,0,65.52v59.227c0,4.602,3.731,8.332,8.332,8.332s8.332-3.731,8.332-8.332
	V65.52c0-13.284,10.807-24.09,24.09-24.09h430.492c13.284,0,24.09,10.807,24.09,24.09v284.411h-52.21
	c-4.602,0-8.332,3.731-8.332,8.332s3.731,8.332,8.332,8.332h52.21v15.273c0,13.284-10.807,24.09-24.09,24.09h-155.41H196.164H40.754
	c-13.284,0-24.09-10.807-24.09-24.09v-15.273h398.688c4.602,0,8.332-3.731,8.332-8.332s-3.731-8.332-8.332-8.332H16.664V152.522
	c0-4.602-3.731-8.332-8.332-8.332S0,147.92,0,152.522v229.348c0,22.472,18.283,40.754,40.754,40.754H183.54l-20.494,47.945h-40.034
	c-4.602,0-8.332,3.731-8.332,8.332s3.731,8.332,8.332,8.332h265.975c4.602,0,8.332-3.731,8.332-8.332s-3.731-8.332-8.332-8.332
	h-40.034l-20.494-47.945h142.786c22.472,0,40.754-18.282,40.754-40.754V65.52C512,43.049,493.717,24.766,471.246,24.766z
	 M330.83,470.568H181.17l14.238-33.31h121.185L330.83,470.568z"/>
<path d="M253.972,376.221c-3.517,0.879-6.116,4.048-6.291,7.67c-0.364,7.534,9.106,11.629,14.33,6.172
	c2.663-2.782,3.078-7.177,0.913-10.385C261.01,376.772,257.341,375.379,253.972,376.221z"/>
</svg>